<?xml version="1.0" encoding="UTF-8"?>
<svg width="400px" height="400px" viewBox="0 0 400 400" version="1.1" xmlns="http://www.w3.org/2000/svg" xmlns:xlink="http://www.w3.org/1999/xlink">
    <!-- Generator: Sketch 60.1 (88133) - https://sketch.com -->
    <title>Boxed Logotype/Amediateka_boxed_white_stroke</title>
    <desc>Created with Sketch.</desc>
    <g id="Brand" stroke="none" stroke-width="1" fill="none" fill-rule="evenodd">
        <g id="Kit" transform="translate(-2500.000000, -1900.000000)" fill="#FFFFFF">
            <path d="M2857.91006,1900 C2869.073,1900 2879.77875,1904.43446 2887.67214,1912.32786 C2895.56554,1920.22125 2900,1930.927 2900,1942.08994 L2900,1942.08994 L2900,2257.91006 C2900,2281.15569 2881.15569,2300 2857.91006,2300 L2857.91006,2300 L2542.08994,2300 C2518.84431,2300 2500,2281.15569 2500,2257.91006 L2500,2257.91006 L2500,1942.08994 C2500,1918.84431 2518.84431,1900 2542.08994,1900 L2542.08994,1900 Z M2857.61967,1910.76923 L2542.38033,1910.76923 C2524.91261,1910.80128 2510.76923,1924.9685 2510.76923,1942.43358 L2510.76923,1942.43358 L2510.76923,2257.62452 C2510.80121,2275.06691 2524.93526,2289.19879 2542.38033,2289.23077 L2542.38033,2289.23077 L2857.61967,2289.23077 C2875.06474,2289.19879 2889.19879,2275.06691 2889.23077,2257.62452 L2889.23077,2257.62452 L2889.23077,1942.37548 C2889.19879,1924.93309 2875.06474,1910.80121 2857.61967,1910.76923 L2857.61967,1910.76923 Z M2725.2133,1961.53846 L2777.86287,2112.91209 C2777.96671,2113.29718 2778.10373,2113.67237 2778.27236,2114.03337 C2780.07764,2117.8887 2782.91411,2121.15895 2786.4623,2123.47578 C2793.30674,2128.256 2808.16562,2130.43956 2796.81671,2135.98698 C2792.11272,2138.00151 2787.57452,2140.38927 2783.24482,2143.1278 C2781.43134,2144.54416 2782.30883,2147.78999 2785.11681,2149.0293 C2787.92479,2150.26862 2791.66876,2151.50794 2792.95575,2155.34392 C2794.24274,2159.17989 2794.76923,2161.24542 2794.76923,2161.24542 L2794.76923,2161.24542 L2795.06173,2161.83557 L2818.46154,2229.23077 L2768.21045,2229.23077 L2745.80513,2164.96337 L2669.46325,2164.96337 L2669.46325,2164.66829 C2669.46325,2164.66829 2670.92574,2160.18315 2672.32972,2156.52422 C2673.73371,2152.86528 2673.73371,2149.56044 2670.69174,2148.97029 C2667.64976,2148.38014 2668.52726,2145.72446 2670.28224,2144.48514 C2672.03723,2143.24583 2676.48319,2141.35735 2687.8321,2136.10501 C2699.18101,2130.85267 2691.86857,2127.13472 2688.2416,2124.30199 C2686.36218,2122.57341 2685.55653,2119.95454 2686.13561,2117.45625 L2686.13561,2117.45625 L2729.13276,2117.45625 L2699.883,2033.77289 L2672.44672,2112.558 C2672.44672,2112.558 2669.63875,2121.76435 2673.26572,2124.36101 C2676.89269,2126.95767 2684.14663,2130.67562 2672.85622,2136.16402 C2661.56581,2141.65242 2657.11985,2143.36386 2655.30636,2144.54416 C2653.49288,2145.72446 2652.67388,2148.43915 2655.71586,2149.0293 C2658.75783,2149.61945 2658.75783,2152.9243 2657.35385,2156.58323 L2657.35385,2156.58323 L2655.18936,2162.13065 L2631.78955,2229.17175 L2581.53846,2229.17175 L2604.93827,2162.24868 L2607.16125,2156.34717 C2608.56524,2152.68824 2608.56524,2149.38339 2605.52327,2148.79324 C2602.48129,2148.20309 2603.35878,2145.54742 2605.11377,2144.3081 C2606.86876,2143.06878 2611.31472,2141.1803 2622.66363,2135.92796 C2634.01254,2130.67562 2627.51909,2127.72487 2623.07312,2124.12495 C2618.62716,2120.52503 2622.19563,2112.32194 2622.19563,2112.32194 L2622.19563,2112.32194 L2622.54663,2111.43671 L2674.9037,1961.53846 L2725.2133,1961.53846 Z" id="Boxed-Logotype/Amediateka_boxed_white_stroke"></path>
        </g>
    </g>
</svg>