<?xml version="1.0" encoding="UTF-8"?>
<svg width="400px" height="400px" viewBox="0 0 400 400" version="1.1" xmlns="http://www.w3.org/2000/svg" xmlns:xlink="http://www.w3.org/1999/xlink">
    <!-- Generator: Sketch 60.1 (88133) - https://sketch.com -->
    <title>Boxed Logotype/Amediateka_boxed_black_stroke</title>
    <desc>Created with Sketch.</desc>
    <g id="Brand" stroke="none" stroke-width="1" fill="none" fill-rule="evenodd">
        <g id="Kit" transform="translate(-1100.000000, -1900.000000)" fill="#000000">
            <path d="M1457.91006,1900 C1469.073,1900 1479.77875,1904.43446 1487.67214,1912.32786 C1495.56554,1920.22125 1500,1930.927 1500,1942.08994 L1500,1942.08994 L1500,2257.91006 C1500,2281.15569 1481.15569,2300 1457.91006,2300 L1457.91006,2300 L1142.08994,2300 C1118.84431,2300 1100,2281.15569 1100,2257.91006 L1100,2257.91006 L1100,1942.08994 C1100,1918.84431 1118.84431,1900 1142.08994,1900 L1142.08994,1900 Z M1457.61967,1910.76923 L1142.38033,1910.76923 C1124.91261,1910.80128 1110.76923,1924.9685 1110.76923,1942.43358 L1110.76923,1942.43358 L1110.76923,2257.62452 C1110.80121,2275.06691 1124.93526,2289.19879 1142.38033,2289.23077 L1142.38033,2289.23077 L1457.61967,2289.23077 C1475.06474,2289.19879 1489.19879,2275.06691 1489.23077,2257.62452 L1489.23077,2257.62452 L1489.23077,1942.37548 C1489.19879,1924.93309 1475.06474,1910.80121 1457.61967,1910.76923 L1457.61967,1910.76923 Z M1325.2133,1961.53846 L1377.86287,2112.91209 C1377.96671,2113.29718 1378.10373,2113.67237 1378.27236,2114.03337 C1380.07764,2117.8887 1382.91411,2121.15895 1386.4623,2123.47578 C1393.30674,2128.256 1408.16562,2130.43956 1396.81671,2135.98698 C1392.11272,2138.00151 1387.57452,2140.38927 1383.24482,2143.1278 C1381.43134,2144.54416 1382.30883,2147.78999 1385.11681,2149.0293 C1387.92479,2150.26862 1391.66876,2151.50794 1392.95575,2155.34392 C1394.24274,2159.17989 1394.76923,2161.24542 1394.76923,2161.24542 L1394.76923,2161.24542 L1395.06173,2161.83557 L1418.46154,2229.23077 L1368.21045,2229.23077 L1345.80513,2164.96337 L1269.46325,2164.96337 L1269.46325,2164.66829 C1269.46325,2164.66829 1270.92574,2160.18315 1272.32972,2156.52422 C1273.73371,2152.86528 1273.73371,2149.56044 1270.69174,2148.97029 C1267.64976,2148.38014 1268.52726,2145.72446 1270.28224,2144.48514 C1272.03723,2143.24583 1276.48319,2141.35735 1287.8321,2136.10501 C1299.18101,2130.85267 1291.86857,2127.13472 1288.2416,2124.30199 C1286.36218,2122.57341 1285.55653,2119.95454 1286.13561,2117.45625 L1286.13561,2117.45625 L1329.13276,2117.45625 L1299.883,2033.77289 L1272.44672,2112.558 C1272.44672,2112.558 1269.63875,2121.76435 1273.26572,2124.36101 C1276.89269,2126.95767 1284.14663,2130.67562 1272.85622,2136.16402 C1261.56581,2141.65242 1257.11985,2143.36386 1255.30636,2144.54416 C1253.49288,2145.72446 1252.67388,2148.43915 1255.71586,2149.0293 C1258.75783,2149.61945 1258.75783,2152.9243 1257.35385,2156.58323 L1257.35385,2156.58323 L1255.18936,2162.13065 L1231.78955,2229.17175 L1181.53846,2229.17175 L1204.93827,2162.24868 L1207.16125,2156.34717 C1208.56524,2152.68824 1208.56524,2149.38339 1205.52327,2148.79324 C1202.48129,2148.20309 1203.35878,2145.54742 1205.11377,2144.3081 C1206.86876,2143.06878 1211.31472,2141.1803 1222.66363,2135.92796 C1234.01254,2130.67562 1227.51909,2127.72487 1223.07312,2124.12495 C1218.62716,2120.52503 1222.19563,2112.32194 1222.19563,2112.32194 L1222.19563,2112.32194 L1222.54663,2111.43671 L1274.9037,1961.53846 L1325.2133,1961.53846 Z" id="Boxed-Logotype/Amediateka_boxed_black_stroke"></path>
        </g>
    </g>
</svg>