<?xml version="1.0" encoding="UTF-8"?>
<svg width="400px" height="400px" viewBox="0 0 400 400" version="1.1" xmlns="http://www.w3.org/2000/svg" xmlns:xlink="http://www.w3.org/1999/xlink">
    <!-- Generator: Sketch 60.1 (88133) - https://sketch.com -->
    <title>Boxed Logotype/Amediateka_boxed_white_fill</title>
    <desc>Created with Sketch.</desc>
    <g id="Brand" stroke="none" stroke-width="1" fill="none" fill-rule="evenodd">
        <g id="Kit" transform="translate(-1800.000000, -1900.000000)" fill="#FFFFFF">
            <path d="M2157.91006,1900 C2169.073,1900 2179.77875,1904.43446 2187.67214,1912.32786 C2195.56554,1920.22125 2200,1930.927 2200,1942.08994 L2200,1942.08994 L2200,2257.91006 C2200,2281.15569 2181.15569,2300 2157.91006,2300 L2157.91006,2300 L1842.08994,2300 C1818.84431,2300 1800,2281.15569 1800,2257.91006 L1800,2257.91006 L1800,1942.08994 C1800,1918.84431 1818.84431,1900 1842.08994,1900 L1842.08994,1900 Z M2025.2133,1961.53846 L1974.9037,1961.53846 L1922.54663,2111.43671 L1922.19563,2112.32194 C1922.19563,2112.32194 1918.62716,2120.52503 1923.07312,2124.12495 C1927.51909,2127.72487 1934.01254,2130.67562 1922.66363,2135.92796 C1911.31472,2141.1803 1906.86876,2143.06878 1905.11377,2144.3081 C1903.35878,2145.54742 1902.48129,2148.20309 1905.52327,2148.79324 C1908.56524,2149.38339 1908.56524,2152.68824 1907.16125,2156.34717 L1904.93827,2162.24868 L1881.53846,2229.17175 L1931.78955,2229.17175 L1955.18936,2162.13065 L1957.35385,2156.58323 C1958.75783,2152.9243 1958.75783,2149.61945 1955.71586,2149.0293 C1952.67388,2148.43915 1953.49288,2145.72446 1955.30636,2144.54416 C1957.11985,2143.36386 1961.56581,2141.65242 1972.85622,2136.16402 C1984.14663,2130.67562 1976.89269,2126.95767 1973.26572,2124.36101 C1969.63875,2121.76435 1972.44672,2112.558 1972.44672,2112.558 L1999.883,2033.77289 L2029.13276,2117.45625 L1986.13561,2117.45625 C1985.55653,2119.95454 1986.36218,2122.57341 1988.2416,2124.30199 C1991.86857,2127.13472 1999.18101,2130.85267 1987.8321,2136.10501 C1976.48319,2141.35735 1972.03723,2143.24583 1970.28224,2144.48514 C1968.52726,2145.72446 1967.64976,2148.38014 1970.69174,2148.97029 C1973.73371,2149.56044 1973.73371,2152.86528 1972.32972,2156.52422 C1970.92574,2160.18315 1969.46325,2164.66829 1969.46325,2164.66829 L1969.46325,2164.96337 L2045.80513,2164.96337 L2068.21045,2229.23077 L2118.46154,2229.23077 L2095.06173,2161.83557 L2094.76923,2161.24542 C2094.76923,2161.24542 2094.24274,2159.17989 2092.95575,2155.34392 C2091.66876,2151.50794 2087.92479,2150.26862 2085.11681,2149.0293 C2082.30883,2147.78999 2081.43134,2144.54416 2083.24482,2143.1278 C2087.57452,2140.38927 2092.11272,2138.00151 2096.81671,2135.98698 C2108.16562,2130.43956 2093.30674,2128.256 2086.4623,2123.47578 C2082.91411,2121.15895 2080.07764,2117.8887 2078.27236,2114.03337 C2078.10373,2113.67237 2077.96671,2113.29718 2077.86287,2112.91209 L2025.2133,1961.53846 Z" id="Boxed-Logotype/Amediateka_boxed_white_fill"></path>
        </g>
    </g>
</svg>