<?xml version="1.0" encoding="UTF-8"?>
<svg width="360px" height="400px" viewBox="0 0 360 400" version="1.1" xmlns="http://www.w3.org/2000/svg" xmlns:xlink="http://www.w3.org/1999/xlink">
    <!-- Generator: Sketch 60.1 (88133) - https://sketch.com -->
    <title>Sign/Amediateka_sign_white</title>
    <desc>Created with Sketch.</desc>
    <g id="Brand" stroke="none" stroke-width="1" fill="none" fill-rule="evenodd">
        <g id="Kit" transform="translate(-1100.000000, -2700.000000)" fill="#FFFFFF" fill-rule="nonzero">
            <path d="M1420.30545,2989.47369 C1418.54125,2984.21053 1412.36655,2981.57895 1408.83814,2979.82456 C1403.54553,2977.19298 1403.54553,2972.80702 1406.19184,2971.05263 C1408.83814,2969.29825 1409.72024,2968.42105 1426.48016,2960.52631 C1443.24008,2952.63158 1421.18756,2949.12281 1410.60234,2942.10526 C1402.66343,2936.84211 1399.13503,2930.70175 1398.25293,2927.19298 C1398.25293,2926.31579 1397.37083,2926.31579 1397.37083,2925.4386 L1317.98173,2700 L1242.12104,2700 L1163.61405,2922.80702 L1162.73195,2924.5614 C1162.73195,2924.5614 1157.43935,2936.84211 1163.61405,2942.10526 C1168.90666,2946.49123 1180.37397,2951.75439 1162.73195,2959.64912 C1145.97203,2967.54386 1138.91522,2970.17544 1136.26892,2971.92983 C1133.62262,2973.68421 1131.85841,2978.07017 1137.15102,2978.94737 C1141.56153,2979.82456 1141.56153,2985.08772 1139.79732,2990.35088 C1138.03312,2995.61403 1136.26892,2999.12281 1136.26892,2999.12281 L1100,3100 L1175.86069,3100 L1212.12961,2998.24561 C1212.12961,2998.24561 1213.01171,2995.61403 1215.65801,2990.35088 C1217.42222,2985.08772 1217.42222,2979.82456 1213.01171,2978.94737 C1208.60121,2978.07017 1209.48331,2973.68421 1212.12961,2971.92983 C1214.77591,2970.17544 1221.83272,2967.54386 1238.59264,2959.64912 C1255.35256,2951.75439 1244.76735,2945.61403 1239.47474,2942.10526 C1232.41793,2936.84211 1238.59264,2924.5614 1238.59264,2924.5614 L1280.05139,2807.89474 L1324.15644,2932.45614 L1259.76307,2932.45614 C1258.88096,2935.96491 1259.76307,2940.35088 1263.29147,2942.98246 C1268.58407,2947.36842 1280.05139,2952.63158 1262.40937,2960.52631 C1245.64945,2968.42105 1238.59264,2971.05263 1235.94633,2972.80702 C1233.30004,2974.5614 1232.41793,2978.94737 1236.82844,2979.82456 C1241.23894,2980.70175 1241.23894,2985.96491 1239.47474,2991.22807 C1237.71054,2996.49123 1235.06424,3003.50877 1235.06424,3003.50877 L1235.06424,3004.38597 L1350.61947,3004.38597 L1384.13931,3100 L1460,3100 L1422.95176,2998.24561 C1422.95176,2998.24561 1422.06965,2995.61403 1420.30545,2989.47369 Z" id="Sign/Amediateka_sign_white"></path>
        </g>
    </g>
</svg>