<?xml version="1.0" encoding="UTF-8"?>
<svg width="360px" height="400px" viewBox="0 0 360 400" version="1.1" xmlns="http://www.w3.org/2000/svg" xmlns:xlink="http://www.w3.org/1999/xlink">
    <!-- Generator: Sketch 60.1 (88133) - https://sketch.com -->
    <title>Sign/Amediateka_sign_black</title>
    <desc>Created with Sketch.</desc>
    <g id="Brand" stroke="none" stroke-width="1" fill="none" fill-rule="evenodd">
        <g id="Kit" transform="translate(-400.000000, -2700.000000)" fill="#000000" fill-rule="nonzero">
            <path d="M720.305452,2989.47369 C718.541252,2984.21053 712.366548,2981.57895 708.838141,2979.82456 C703.545533,2977.19298 703.545533,2972.80702 706.191837,2971.05263 C708.838141,2969.29825 709.720244,2968.42105 726.480163,2960.52631 C743.240081,2952.63158 721.187556,2949.12281 710.602341,2942.10526 C702.66343,2936.84211 699.13503,2930.70175 698.252926,2927.19298 C698.252926,2926.31579 697.37083,2926.31579 697.37083,2925.4386 L617.981733,2700 L542.121044,2700 L463.614052,2922.80702 L462.731951,2924.5614 C462.731951,2924.5614 457.439345,2936.84211 463.614052,2942.10526 C468.906659,2946.49123 480.373972,2951.75439 462.731951,2959.64912 C445.972031,2967.54386 438.915223,2970.17544 436.26892,2971.92983 C433.622617,2973.68421 431.858415,2978.07017 437.151021,2978.94737 C441.561527,2979.82456 441.561527,2985.08772 439.797324,2990.35088 C438.033122,2995.61403 436.26892,2999.12281 436.26892,2999.12281 L400,3100 L475.860689,3100 L512.129609,2998.24561 C512.129609,2998.24561 513.01171,2995.61403 515.658013,2990.35088 C517.422216,2985.08772 517.422216,2979.82456 513.01171,2978.94737 C508.601205,2978.07017 509.483306,2973.68421 512.129609,2971.92983 C514.775912,2970.17544 521.832721,2967.54386 538.592637,2959.64912 C555.352563,2951.75439 544.767348,2945.61403 539.474741,2942.10526 C532.417933,2936.84211 538.592637,2924.5614 538.592637,2924.5614 L580.051385,2807.89474 L624.156437,2932.45614 L559.763067,2932.45614 C558.880963,2935.96491 559.763067,2940.35088 563.291467,2942.98246 C568.584074,2947.36842 580.051385,2952.63158 562.40937,2960.52631 C545.649452,2968.42105 538.592637,2971.05263 535.946333,2972.80702 C533.300037,2974.5614 532.417933,2978.94737 536.828437,2979.82456 C541.238941,2980.70175 541.238941,2985.96491 539.474741,2991.22807 C537.710541,2996.49123 535.064237,3003.50877 535.064237,3003.50877 L535.064237,3004.38597 L650.619474,3004.38597 L684.139311,3100 L760,3100 L722.951756,2998.24561 C722.951756,2998.24561 722.069652,2995.61403 720.305452,2989.47369 Z" id="Sign/Amediateka_sign_black"></path>
        </g>
    </g>
</svg>