<?xml version="1.0" encoding="UTF-8"?>
<svg width="4200px" height="400px" viewBox="0 0 4200 400" version="1.1" xmlns="http://www.w3.org/2000/svg" xmlns:xlink="http://www.w3.org/1999/xlink">
    <!-- Generator: Sketch 60.1 (88133) - https://sketch.com -->
    <title>Full Logotype/Amediateka_full_black</title>
    <desc>Created with Sketch.</desc>
    <g id="Brand" stroke="none" stroke-width="1" fill="none" fill-rule="evenodd">
        <g id="Kit" transform="translate(-400.000000, -400.000000)" fill="#000000" fill-rule="nonzero">
            <path d="M3776.27119,800 L3776.27119,404.138645 L3877.9661,404.138645 L3877.9661,554.164511 L3885.28814,554.164511 L3978.23729,404.138645 L4094.57627,404.138645 L3986.16949,578.789446 L4110.84746,784.066218 L4110.84746,800 L4000,800 L3916.20339,648.318676 L3876.54237,648.318676 L3876.54237,799.379203 L3776.27119,800 Z M594.847458,561.614071 L639.59322,665.080186 L594.644068,665.080186 L559.661017,750.543197 L671.525424,750.543197 L694.305085,800 L790.711864,800 L790.711864,785.307812 L616.40678,402.069322 L573.898305,402.069322 L400,785.307812 L400,800 L496.610169,800 L594.847458,561.614071 Z M1240.81356,404.138645 L1276.20339,404.138645 L1276.20339,800 L1174.50847,800 L1174.50847,624.107605 L1091.52542,712.053802 L1080.33898,712.053802 L998.983051,624.107605 L998.983051,800 L897.288136,800 L897.288136,404.138645 L933.898305,404.138645 L1085.83051,575.478531 L1240.81356,404.138645 Z M1666.30508,495.60269 L1522.71186,495.60269 L1522.71186,551.474392 L1654.50847,551.474392 L1654.50847,641.076048 L1522.71186,641.076048 L1522.71186,710.398345 L1671.18644,710.398345 L1671.18644,800 L1424.0678,800 L1424.0678,405.173306 L1666.30508,405.173306 L1666.30508,495.60269 Z M1954.91525,800 L1808.67797,800 L1808.67797,405.173306 L1954.91525,405.173306 C2207.72881,406.414899 2207.72881,798.758407 1954.91525,800 Z M1907.72881,708.12209 L1954.91525,708.12209 C2078.57627,708.12209 2078.57627,497.258148 1954.91525,497.258148 L1907.72881,497.258148 L1907.72881,708.12209 Z M2457.28814,710.398345 L2457.28814,798.965339 L2260.61017,798.965339 L2260.61017,710.398345 L2309.83051,710.398345 L2309.83051,493.326436 L2264.47458,493.326436 L2264.47458,405.173306 L2454.23729,405.173306 L2454.23729,493.326436 L2407.86441,493.326436 L2407.86441,710.398345 L2457.28814,710.398345 Z M2832.13559,750.336265 L2679.18644,750.336265 L2656.61017,800 L2559.59322,800 L2559.59322,785.307812 L2734.10169,400 L2776.81356,400 L2951.72881,785.100879 L2951.72881,799.793068 L2854.71186,799.793068 L2832.13559,750.336265 Z M2755.05085,560.372478 L2711.32203,663.838593 L2800,663.838593 L2755.05085,560.372478 Z M2990.57627,495.60269 L2990.57627,405.173306 L3278.77966,405.173306 L3278.77966,495.60269 L3184,495.60269 L3184,800 L3085.9661,800 L3085.9661,495.60269 L2990.57627,495.60269 Z M3645.69492,495.60269 L3502.30508,495.60269 L3502.30508,551.474392 L3633.89831,551.474392 L3633.89831,641.076048 L3502.10169,641.076048 L3502.10169,710.398345 L3650.57627,710.398345 L3650.57627,800 L3403.45763,800 L3403.45763,405.173306 L3645.49153,405.173306 L3645.69492,495.60269 Z M4502.77966,800 L4600,800 L4600,785.307812 L4425.28814,400 L4382.57627,400 L4207.45763,785.307812 L4207.45763,800 L4305.08475,800 L4328.0678,750.336265 L4440.33898,750.336265 L4405.15254,664.252457 L4360,664.252457 L4404.94915,560.786342 L4502.77966,800 Z" id="Full-Logotype/Amediateka_full_black"></path>
        </g>
    </g>
</svg>