<?xml version="1.0" encoding="UTF-8"?>
<svg width="4200px" height="400px" viewBox="0 0 4200 400" version="1.1" xmlns="http://www.w3.org/2000/svg" xmlns:xlink="http://www.w3.org/1999/xlink">
    <!-- Generator: Sketch 60.1 (88133) - https://sketch.com -->
    <title>Full Logotype/Amediateka_full_white</title>
    <desc>Created with Sketch.</desc>
    <g id="Brand" stroke="none" stroke-width="1" fill="none" fill-rule="evenodd">
        <g id="Kit" transform="translate(-400.000000, -1100.000000)" fill="#FFFFFF" fill-rule="nonzero">
            <path d="M3776.27119,1500 L3776.27119,1104.13864 L3877.9661,1104.13864 L3877.9661,1254.16451 L3885.28814,1254.16451 L3978.23729,1104.13864 L4094.57627,1104.13864 L3986.16949,1278.78945 L4110.84746,1484.06622 L4110.84746,1500 L4000,1500 L3916.20339,1348.31868 L3876.54237,1348.31868 L3876.54237,1499.3792 L3776.27119,1500 Z M594.847458,1261.61407 L639.59322,1365.08019 L594.644068,1365.08019 L559.661017,1450.5432 L671.525424,1450.5432 L694.305085,1500 L790.711864,1500 L790.711864,1485.30781 L616.40678,1102.06932 L573.898305,1102.06932 L400,1485.30781 L400,1500 L496.610169,1500 L594.847458,1261.61407 Z M1240.81356,1104.13864 L1276.20339,1104.13864 L1276.20339,1500 L1174.50847,1500 L1174.50847,1324.1076 L1091.52542,1412.0538 L1080.33898,1412.0538 L998.983051,1324.1076 L998.983051,1500 L897.288136,1500 L897.288136,1104.13864 L933.898305,1104.13864 L1085.83051,1275.47853 L1240.81356,1104.13864 Z M1666.30508,1195.60269 L1522.71186,1195.60269 L1522.71186,1251.47439 L1654.50847,1251.47439 L1654.50847,1341.07605 L1522.71186,1341.07605 L1522.71186,1410.39834 L1671.18644,1410.39834 L1671.18644,1500 L1424.0678,1500 L1424.0678,1105.17331 L1666.30508,1105.17331 L1666.30508,1195.60269 Z M1954.91525,1500 L1808.67797,1500 L1808.67797,1105.17331 L1954.91525,1105.17331 C2207.72881,1106.4149 2207.72881,1498.75841 1954.91525,1500 Z M1907.72881,1408.12209 L1954.91525,1408.12209 C2078.57627,1408.12209 2078.57627,1197.25815 1954.91525,1197.25815 L1907.72881,1197.25815 L1907.72881,1408.12209 Z M2457.28814,1410.39834 L2457.28814,1498.96534 L2260.61017,1498.96534 L2260.61017,1410.39834 L2309.83051,1410.39834 L2309.83051,1193.32644 L2264.47458,1193.32644 L2264.47458,1105.17331 L2454.23729,1105.17331 L2454.23729,1193.32644 L2407.86441,1193.32644 L2407.86441,1410.39834 L2457.28814,1410.39834 Z M2832.13559,1450.33626 L2679.18644,1450.33626 L2656.61017,1500 L2559.59322,1500 L2559.59322,1485.30781 L2734.10169,1100 L2776.81356,1100 L2951.72881,1485.10088 L2951.72881,1499.79307 L2854.71186,1499.79307 L2832.13559,1450.33626 Z M2755.05085,1260.37248 L2711.32203,1363.83859 L2800,1363.83859 L2755.05085,1260.37248 Z M2990.57627,1195.60269 L2990.57627,1105.17331 L3278.77966,1105.17331 L3278.77966,1195.60269 L3184,1195.60269 L3184,1500 L3085.9661,1500 L3085.9661,1195.60269 L2990.57627,1195.60269 Z M3645.69492,1195.60269 L3502.30508,1195.60269 L3502.30508,1251.47439 L3633.89831,1251.47439 L3633.89831,1341.07605 L3502.10169,1341.07605 L3502.10169,1410.39834 L3650.57627,1410.39834 L3650.57627,1500 L3403.45763,1500 L3403.45763,1105.17331 L3645.49153,1105.17331 L3645.69492,1195.60269 Z M4502.77966,1500 L4600,1500 L4600,1485.30781 L4425.28814,1100 L4382.57627,1100 L4207.45763,1485.30781 L4207.45763,1500 L4305.08475,1500 L4328.0678,1450.33626 L4440.33898,1450.33626 L4405.15254,1364.25246 L4360,1364.25246 L4404.94915,1260.78634 L4502.77966,1500 Z" id="Full-Logotype/Amediateka_full_white"></path>
        </g>
    </g>
</svg>